name C:\Users\u0101727\Documents\MyRepositories\upper-imu-dc\Results\main_tracking\Case_10\FLX01_angularVelocities_groundFrame.mot
datacolumns 4
datarows 58
range 3.51000000 4.08000000
endheader 
time	radius_imu_x	radius_imu_y	radius_imu_z	
          3.51000000	         -0.02972568	         -0.24839713	         -0.15506421	
          3.52000000	         -0.01108161	         -0.18614114	         -0.14338683	
          3.53000000	          0.00710718	         -0.12298765	         -0.12994830	
          3.54000000	          0.02427172	         -0.06184991	         -0.11557935	
          3.55000000	          0.03986037	         -0.00592302	         -0.10125359	
          3.56000000	          0.05348146	          0.04242088	         -0.08783051	
          3.57000000	          0.06501832	          0.08250353	         -0.07581833	
          3.58000000	          0.07462603	          0.11542083	         -0.06527559	
          3.59000000	          0.08262902	          0.14343115	         -0.05586964	
          3.60000000	          0.08940510	          0.16913166	         -0.04703675	
          3.61000000	          0.09530064	          0.19472615	         -0.03818605	
          3.62000000	          0.10054306	          0.22127746	         -0.02892787	
          3.63000000	          0.10511339	          0.24788189	         -0.01929062	
          3.64000000	          0.10863534	          0.27115311	         -0.00984248	
          3.65000000	          0.11037741	          0.28548437	         -0.00165145	
          3.66000000	          0.10939072	          0.28410733	          0.00390195	
          3.67000000	          0.10474025	          0.26062891	          0.00539404	
          3.68000000	          0.09579817	          0.21081424	          0.00166201	
          3.69000000	          0.08258554	          0.13451891	         -0.00787386	
          3.70000000	          0.06609280	          0.03739269	         -0.02290971	
          3.71000000	          0.04838401	         -0.06910167	         -0.04225339	
          3.72000000	          0.03218955	         -0.16982263	         -0.06408103	
          3.73000000	          0.02011795	         -0.24975886	         -0.08639246	
          3.74000000	          0.01397283	         -0.29864277	         -0.10773554	
          3.75000000	          0.01431025	         -0.31367591	         -0.12761439	
          3.76000000	          0.02030869	         -0.29965868	         -0.14647960	
          3.77000000	          0.03001920	         -0.26733151	         -0.16553146	
          3.78000000	          0.04087012	         -0.23031434	         -0.18632037	
          3.79000000	          0.05028953	         -0.20151529	         -0.21026700	
          3.80000000	          0.05630600	         -0.18988100	         -0.23821701	
          3.81000000	          0.05798301	         -0.19832549	         -0.27015284	
          3.82000000	          0.05557439	         -0.22338624	         -0.30515274	
          3.83000000	          0.05036484	         -0.25661033	         -0.34160423	
          3.84000000	          0.04425975	         -0.28710697	         -0.37758870	
          3.85000000	          0.03925511	         -0.30443871	         -0.41131532	
          3.86000000	          0.03693348	         -0.30108733	         -0.44149550	
          3.87000000	          0.03811375	         -0.27392987	         -0.46757435	
          3.88000000	          0.04272225	         -0.22450972	         -0.48977931	
          3.89000000	          0.04988252	         -0.15825393	         -0.50900019	
          3.90000000	          0.05817132	         -0.08301169	         -0.52655605	
          3.91000000	          0.06596087	         -0.00734226	         -0.54391616	
          3.92000000	          0.07176455	          0.06110473	         -0.56242480	
          3.93000000	          0.07451941	          0.11688650	         -0.58306338	
          3.94000000	          0.07376851	          0.15759185	         -0.60628441	
          3.95000000	          0.06972909	          0.18407252	         -0.63196027	
          3.96000000	          0.06323768	          0.19999205	         -0.65948087	
          3.97000000	          0.05557630	          0.21074823	         -0.68798895	
          3.98000000	          0.04821855	          0.22206084	         -0.71668193	
          3.99000000	          0.04256465	          0.23865313	         -0.74508005	
          4.00000000	          0.03973029	          0.26338045	         -0.77317937	
          4.01000000	          0.04042066	          0.29694164	         -0.80145471	
          4.02000000	          0.04488480	          0.33808880	         -0.83072977	
          4.03000000	          0.05292456	          0.38412047	         -0.86197164	
          4.04000000	          0.06393932	          0.43145267	         -0.89607789	
          4.05000000	          0.07701979	          0.47621087	         -0.93369178	
          4.06000000	          0.09113157	          0.51493624	         -0.97503372	
          4.07000000	          0.10541179	          0.54546705	         -1.01973203	
          4.08000000	          0.11954419	          0.56784822	         -1.06668172	
